:FULLY-SPECIFIED
:FORCE-ALL-JOINTS-BE-3DOF
:DEGREES
544
root 8.16902 14.0657 -3.55558 179.262 47.7496 176.775
lfemur -32.9843 -5.53402 -16.8523
ltibia 87.4221 -0 0
lfoot -38.8857 -9.68512 0.0191835
ltoes -6.11885 0 0
rfemur -48.3333 -6.84473 -3.62885
rtibia 62.5746 -0 0
rfoot -9.46271 1.08123 -0.0060397
rtoes -39.6812 0 0
lowerback 13.0082 1.08763 1.0942
upperback 6.83426 2.50897 6.98081
thorax -0.375404 1.51657 6.39112
lowerneck -2.37096 -16.0656 -6.19463
upperneck 9.64722 -21.813 8.47454
head 4.90572 -10.5205 2.17095
lclavicle 6.75868e-014 -6.52014e-014 0
lhumerus -45.1371 -12.9633 104.531
lradius 56.6893 -0 0
lwrist 29.2101 0 0
lhand -24.7532 -3.16092 -5.40264e-005
lfingers 7.12502 -0 0
lthumb 1.74991 26.8116 -5.45635e-005
rclavicle 6.75868e-014 -6.52014e-014 0
rhumerus 6.59985 16.8583 -89.5984
rradius 136.459 -0 0
rwrist -46.8818 0 0
rhand -30.6101 -24.1755 0.0390573
rfingers 7.12502 -0 0
rthumb -3.90649 -54.1097 0.0371517
545
root 8.20082 14.071 -3.5311 179.297 47.5748 176.821
lfemur -32.9231 -5.47395 -16.5104
ltibia 87.2416 -0 0
lfoot -38.9883 -10.451 0.0205544
ltoes -5.54288 0 0
rfemur -48.3382 -6.76483 -3.47922
rtibia 62.739 -0 0
rfoot -9.3882 0.749454 -0.00647114
rtoes -39.552 0 0
lowerback 12.907 0.934723 1.09039
upperback 6.78453 2.28783 6.86466
thorax -0.346826 1.40178 6.2994
lowerneck -2.27592 -15.9609 -6.11564
upperneck 9.388 -21.6715 8.49687
head 4.79383 -10.4619 2.20002
lclavicle 6.75868e-014 -6.52014e-014 0
lhumerus -45.3002 -12.5584 104.178
lradius 56.2592 -0 0
lwrist 29.2387 0 0
lhand -24.7178 -3.16716 -5.78855e-005
lfingers 7.12502 -0 0
lthumb 1.78412 26.8051 -5.84609e-005
rclavicle 6.75868e-014 -6.52014e-014 0
rhumerus 7.05895 17.2735 -89.1525
rradius 136.216 -0 0
rwrist -46.4422 0 0
rhand -30.2129 -23.773 0.0418477
rfingers 7.12502 -0 0
rthumb -3.52289 -53.7132 0.039806
546
root 8.23261 14.0762 -3.50663 179.331 47.4 176.868
lfemur -32.8616 -5.41425 -16.1686
ltibia 87.0611 -0 0
lfoot -39.0908 -11.2169 0.0205544
ltoes -4.96692 0 0
rfemur -48.3429 -6.68492 -3.32962
rtibia 62.9034 -0 0
rfoot -9.31369 0.417676 -0.00647114
rtoes -39.4227 0 0
lowerback 12.8058 0.781806 1.08686
upperback 6.73526 2.0666 6.74872
thorax -0.318066 1.28705 6.20763
lowerneck -2.18077 -15.8563 -6.0365
upperneck 9.12909 -21.53 8.51848
head 4.68199 -10.4033 2.22896
lclavicle 6.75868e-014 -6.52014e-014 0
lhumerus -45.4656 -12.1545 103.824
lradius 55.8291 -0 0
lwrist 29.2673 0 0
lhand -24.6824 -3.17341 -5.78855e-005
lfingers 7.12502 -0 0
lthumb 1.81834 26.7985 -5.84609e-005
rclavicle 6.75868e-014 -6.52014e-014 0
rhumerus 7.52246 17.6852 -88.7021
rradius 135.972 -0 0
rwrist -46.0025 0 0
rhand -29.8156 -23.3706 0.0418477
rfingers 7.12502 -0 0
rthumb -3.13927 -53.3168 0.039806
547
root 8.26441 14.0815 -3.48215 179.365 47.2251 176.914
lfemur -32.7997 -5.35491 -15.8267
ltibia 86.8806 -0 0
lfoot -39.1934 -11.9828 0.0191835
ltoes -4.39095 0 0
rfemur -48.3474 -6.605 -3.18006
rtibia 63.0678 -0 0
rfoot -9.23918 0.0858979 -0.0060397
rtoes -39.2935 0 0
lowerback 12.7046 0.628883 1.08359
upperback 6.68644 1.84526 6.63299
thorax -0.289123 1.17236 6.11581
lowerneck -2.08553 -15.7519 -5.95723
upperneck 8.87049 -21.3883 8.53939
head 4.5702 -10.3447 2.25779
lclavicle 6.75868e-014 -6.52014e-014 0
lhumerus -45.6334 -11.7516 103.469
lradius 55.399 -0 0
lwrist 29.2959 0 0
lhand -24.647 -3.17965 -5.40264e-005
lfingers 7.12502 -0 0
lthumb 1.85255 26.792 -5.45635e-005
rclavicle 6.75868e-014 -6.52014e-014 0
rhumerus 7.99044 18.0935 -88.2472
rradius 135.729 -0 0
rwrist -45.5629 0 0
rhand -29.4184 -22.9681 0.0390573
rfingers 7.12502 -0 0
rthumb -2.75567 -52.9203 0.0371517
548
root 8.2962 14.0867 -3.45768 179.399 47.0502 176.96
lfemur -32.7375 -5.29594 -15.4848
ltibia 86.7001 -0 0
lfoot -39.2959 -12.7487 0.016442
ltoes -3.81499 0 0
rfemur -48.3517 -6.52507 -3.03053
rtibia 63.2322 -0 0
rfoot -9.16468 -0.245879 -0.00517682
rtoes -39.1643 0 0
lowerback 12.6035 0.475955 1.0806
upperback 6.63808 1.62382 6.51746
thorax -0.259997 1.05771 6.02393
lowerneck -1.99019 -15.6476 -5.87782
upperneck 8.6122 -21.2466 8.55959
head 4.45846 -10.286 2.28649
lclavicle 6.75868e-014 -6.52014e-014 0
lhumerus -45.8034 -11.3497 103.114
lradius 54.9689 -0 0
lwrist 29.3245 0 0
lhand -24.6116 -3.18589 -4.63084e-005
lfingers 7.12502 -0 0
lthumb 1.88676 26.7855 -4.67687e-005
rclavicle 6.75868e-014 -6.52014e-014 0
rhumerus 8.46292 18.4982 -87.7877
rradius 135.485 -0 0
rwrist -45.1232 0 0
rhand -29.0212 -22.5656 0.0334766
rfingers 7.12502 -0 0
rthumb -2.3721 -52.5239 0.0318434
549
root 8.32799 14.092 -3.4332 179.433 46.8753 177.005
lfemur -32.6749 -5.23734 -15.1428
ltibia 86.5197 -0 0
lfoot -39.3984 -13.5146 0.0123304
ltoes -3.23902 0 0
rfemur -48.3557 -6.44513 -2.88102
rtibia 63.3965 -0 0
rfoot -9.09018 -0.577655 -0.00388255
rtoes -39.0351 0 0
lowerback 12.5023 0.323021 1.07788
upperback 6.59017 1.40229 6.40213
thorax -0.230689 0.943117 5.932
lowerneck -1.89474 -15.5434 -5.79827
upperneck 8.35421 -21.1048 8.57908
head 4.34677 -10.2273 2.31507
lclavicle 6.75868e-014 -6.52014e-014 0
lhumerus -45.9757 -10.9489 102.757
lradius 54.5389 -0 0
lwrist 29.3532 0 0
lhand -24.5761 -3.19213 -3.47313e-005
lfingers 7.12502 -0 0
lthumb 1.92097 26.779 -3.50765e-005
rclavicle 6.75868e-014 -6.52014e-014 0
rhumerus 8.93994 18.8992 -87.3236
rradius 135.241 -0 0
rwrist -44.6836 0 0
rhand -28.6241 -22.1632 0.0251062
rfingers 7.12502 -0 0
rthumb -1.98857 -52.1275 0.0238814
550
root 8.35979 14.0972 -3.40873 179.466 46.7004 177.05
lfemur -32.612 -5.17912 -14.8008
ltibia 86.3392 -0 0
lfoot -39.5008 -14.2805 0.00684939
ltoes -2.66306 0 0
rfemur -48.3596 -6.36518 -2.73155
rtibia 63.5609 -0 0
rfoot -9.0157 -0.909429 -0.00215692
rtoes -38.9059 0 0
lowerback 12.4011 0.170083 1.07542
upperback 6.5427 1.18066 6.28699
thorax -0.201197 0.828567 5.84001
lowerneck -1.79919 -15.4393 -5.71857
upperneck 8.09651 -20.9629 8.59788
head 4.23514 -10.1685 2.34353
lclavicle 6.75868e-014 -6.52014e-014 0
lhumerus -46.1503 -10.5491 102.401
lradius 54.1088 -0 0
lwrist 29.3818 0 0
lhand -24.5407 -3.19838 -1.92951e-005
lfingers 7.12502 -0 0
lthumb 1.95518 26.7724 -1.9487e-005
rclavicle 6.75868e-014 -6.52014e-014 0
rhumerus 9.42155 19.2966 -86.8549
rradius 134.998 -0 0
rwrist -44.2439 0 0
rhand -28.227 -21.7609 0.013947
rfingers 7.12502 -0 0
rthumb -1.60511 -51.7312 0.0132666
551
root 8.39158 14.1025 -3.38425 -180.501 46.5255 -182.905
lfemur -32.5487 -5.12127 -14.4588
ltibia 86.1587 0 0
lfoot -39.6031 -15.0464 0
ltoes -2.08709 0 0
rfemur -48.3632 -6.28522 -2.5821
rtibia 63.7253 0 0
rfoot -8.94122 -1.2412 0
rtoes -38.7767 0 0
lowerback 12.3 0.0171414 1.07324
upperback 6.49569 0.958941 6.17205
thorax -0.171523 0.714065 5.74797
lowerneck -1.70354 -15.3354 -5.63874
upperneck 7.83911 -20.8209 8.61597
head 4.12355 -10.1096 2.37187
lclavicle 6.75868e-014 -6.52014e-014 0
lhumerus -46.3272 -10.1504 102.043
lradius 53.6787 0 0
lwrist 29.4104 0 0
lhand -24.5053 -3.20462 0
lfingers 7.12502 0 0
lthumb 1.98939 26.7659 0
rclavicle 6.75868e-014 -6.52014e-014 0
rhumerus 9.90776 19.6902 -86.3815
rradius 134.754 0 0
rwrist -43.8043 0 0
rhand -27.83 -21.3586 0
rfingers 7.12502 0 0
rthumb -1.22173 -771.335 0
552
root 8.35376 14.2135 -3.39016 179.791 47.4349 177.181
lfemur -31.9062 -4.44444 -14.6307
ltibia 84.5143 -0 0
lfoot -39.4794 -14.3921 0.00707047
ltoes -2.53792 0 0
rfemur -48.0831 -5.82257 -2.2958
rtibia 61.8416 -0 0
rfoot -7.72828 -0.640779 0.0638516
rtoes -38.5804 0 0
lowerback 12.0614 -0.0539491 0.901902
upperback 6.29379 0.808334 6.03985
thorax -0.236897 0.624349 5.72187
lowerneck -1.78555 -15.2752 -5.54939
upperneck 7.91781 -20.7344 8.42075
head 4.12544 -10.0689 2.30523
lclavicle 3.57812e-015 5.88403e-014 0
lhumerus -46.2739 -10.0008 101.918
lradius 53.6281 -0 0
lwrist 29.1749 0 0
lhand -24.5992 -3.42494 0.00180627
lfingers 7.12502 -0 0
lthumb 1.89866 26.5462 0.00173967
rclavicle 3.57812e-015 5.88403e-014 0
rhumerus 10.8834 19.531 -85.6728
rradius 134.727 -0 0
rwrist -43.8446 0 0
rhand -27.807 -21.3927 -6.86515e-005
rfingers 7.12502 -0 0
rthumb -1.19947 -51.3693 -6.65679e-005
553
root 8.31594 14.3246 -3.39607 -179.909 48.3439 177.275
lfemur -31.2663 -3.76573 -14.7949
ltibia 82.8698 -0 0
lfoot -39.3556 -13.7379 0.012728
ltoes -2.98875 0 0
rfemur -47.8008 -5.36132 -2.00746
rtibia 59.9578 -0 0
rfoot -6.51475 -0.0391394 0.114976
rtoes -38.3841 0 0
lowerback 11.823 -0.125752 0.73086
upperback 6.09224 0.657262 5.90818
thorax -0.302229 0.534603 5.69587
lowerneck -1.86744 -15.215 -5.46016
upperneck 7.99614 -20.6476 8.22577
head 4.12728 -10.0281 2.2386
lclavicle 3.57812e-015 5.88403e-014 0
lhumerus -46.221 -9.85109 101.792
lradius 53.5775 -0 0
lwrist 28.9394 0 0
lhand -24.6932 -3.64525 0.00325133
lfingers 7.12502 -0 0
lthumb 1.80792 26.3265 0.00313144
rclavicle 3.57812e-015 5.88403e-014 0
rhumerus 11.8559 19.3604 -84.9678
rradius 134.7 -0 0
rwrist -43.8849 0 0
rhand -27.7839 -21.4269 -0.000123573
rfingers 7.12502 -0 0
rthumb -1.17722 -51.4035 -0.000119822
554
root 8.27811 14.4356 -3.40198 -179.601 49.2526 177.378
lfemur -30.6289 -3.08524 -14.9514
ltibia 81.2254 -0 0
lfoot -39.2318 -13.0836 0.0169718
ltoes -3.43959 0 0
rfemur -47.5165 -4.9015 -1.71705
rtibia 58.0741 -0 0
rfoot -5.30073 0.563449 0.153344
rtoes -38.1879 0 0
lowerback 11.5848 -0.198266 0.560119
upperback 5.89104 0.505729 5.77705
thorax -0.367519 0.444828 5.66998
lowerneck -1.94921 -15.1546 -5.37104
upperneck 8.07412 -20.5606 8.03103
head 4.12907 -9.98735 2.17198
lclavicle 3.57812e-015 5.88403e-014 0
lhumerus -46.1684 -9.70126 101.667
lradius 53.5268 -0 0
lwrist 28.704 0 0
lhand -24.7871 -3.86557 0.00433514
lfingers 7.12502 -0 0
lthumb 1.71718 26.1068 0.00417529
rclavicle 3.57812e-015 5.88403e-014 0
rhumerus 12.8251 19.1786 -84.2667
rradius 134.673 -0 0
rwrist -43.9252 0 0
rhand -27.7609 -21.461 -0.000164764
rfingers 7.12502 -0 0
rthumb -1.15496 -51.4378 -0.000159763
